  0
SECTION
  2
HEADER
  9
$INSBASE
 10
0.0000
 20
0.0000
  9
$EXTMIN
 10
-11.777817
 20
-11.777817
  9
$EXTMAX
 10
11.777817
 20
11.777817
  9
$LIMMIN
 10
-11.777817
 20
-11.777817
  9
$LIMMAX
 10
11.777817
 20
11.777817
  9
$TEXTSTYLE
  7
STANDARD
  9
$CLAYER
  8
default
  0
ENDSEC
  0
SECTION
  2
TABLES
  0
TABLE
  2
LTYPE
 70
4948253
  0
LTYPE
  2
CONTINUOUS
 70
    64
  3
Solid line
 72
    65
 73
     0
 40
0.0
  0
ENDTAB
  0
TABLE
  2
LAYER
 70
     5
  0
LAYER
  2
default
 70
    64
 62
     7
  6
CONTINUOUS
  0
ENDTAB
  0
TABLE
  2
STYLE
 70
     1
  0
STYLE
  2
STANDARD
 70
     0
 40
0.0
 41
1.0
 50
0.0
 71
     0
 42
0.2
  3
txt
  4

  0
ENDTAB
  0
TABLE
  2
VIEW
 70
     0
  0
ENDTAB
  0
ENDSEC
  0
SECTION
  2
BLOCKS
  0
ENDSEC
  0
SECTION
  2
ENTITIES
  0
LINE
  8
default
 10
0.750000
 20
7.639000
 30
0.0
 11
0.750000
 21
7.739000
 31
0.0
  0
LINE
  8
default
 10
0.750000
 20
7.739000
 30
0.0
 11
0.500000
 21
7.939000
 31
0.0
  0
LINE
  8
default
 10
0.500000
 20
7.939000
 30
0.0
 11
0.500000
 21
8.839000
 31
0.0
  0
LINE
  8
default
 10
-0.750000
 20
7.639000
 30
0.0
 11
-0.750000
 21
7.739000
 31
0.0
  0
LINE
  8
default
 10
-0.500000
 20
7.939000
 30
0.0
 11
-0.500000
 21
8.839000
 31
0.0
  0
LINE
  8
default
 10
-0.750000
 20
7.739000
 30
0.0
 11
-0.500000
 21
7.939000
 31
0.0
  0
LINE
  8
default
 10
-0.750000
 20
7.639000
 30
0.0
 11
0.750000
 21
7.639000
 31
0.0
  0
LINE
  8
default
 10
-1.252674
 20
7.572822
 30
0.0
 11
-1.278556
 21
7.669414
 31
0.0
  0
LINE
  8
default
 10
-1.278556
 20
7.669414
 30
0.0
 11
-1.571801
 21
7.797895
 31
0.0
  0
LINE
  8
default
 10
-1.571801
 20
7.797895
 30
0.0
 11
-1.804739
 21
8.667228
 31
0.0
  0
LINE
  8
default
 10
-2.701563
 20
7.184593
 30
0.0
 11
-2.727445
 21
7.281186
 31
0.0
  0
LINE
  8
default
 10
-2.537727
 20
7.539076
 30
0.0
 11
-2.770664
 21
8.408409
 31
0.0
  0
LINE
  8
default
 10
-2.727445
 20
7.281186
 30
0.0
 11
-2.537727
 21
7.539076
 31
0.0
  0
LINE
  8
default
 10
-2.701563
 20
7.184593
 30
0.0
 11
-1.252674
 21
7.572822
 31
0.0
  0
LINE
  8
default
 10
-3.169981
 20
6.990568
 30
0.0
 11
-3.219981
 21
7.077171
 31
0.0
  0
LINE
  8
default
 10
-3.219981
 20
7.077171
 30
0.0
 11
-3.536487
 21
7.125376
 31
0.0
  0
LINE
  8
default
 10
-3.536487
 20
7.125376
 30
0.0
 11
-3.986487
 21
7.904799
 31
0.0
  0
LINE
  8
default
 10
-4.469019
 20
6.240568
 30
0.0
 11
-4.519019
 21
6.327171
 31
0.0
  0
LINE
  8
default
 10
-4.402513
 20
6.625376
 30
0.0
 11
-4.852513
 21
7.404799
 31
0.0
  0
LINE
  8
default
 10
-4.519019
 20
6.327171
 30
0.0
 11
-4.402513
 21
6.625376
 31
0.0
  0
LINE
  8
default
 10
-4.469019
 20
6.240568
 30
0.0
 11
-3.169981
 21
6.990568
 31
0.0
  0
LINE
  8
default
 10
-4.871259
 20
5.931919
 30
0.0
 11
-4.941969
 21
6.002629
 31
0.0
  0
LINE
  8
default
 10
-4.941969
 20
6.002629
 30
0.0
 11
-5.260167
 21
5.967274
 31
0.0
  0
LINE
  8
default
 10
-5.260167
 20
5.967274
 30
0.0
 11
-5.896563
 21
6.603670
 31
0.0
  0
LINE
  8
default
 10
-5.931919
 20
4.871259
 30
0.0
 11
-6.002629
 21
4.941969
 31
0.0
  0
LINE
  8
default
 10
-5.967274
 20
5.260167
 30
0.0
 11
-6.603670
 21
5.896563
 31
0.0
  0
LINE
  8
default
 10
-6.002629
 20
4.941969
 30
0.0
 11
-5.967274
 21
5.260167
 31
0.0
  0
LINE
  8
default
 10
-5.931919
 20
4.871259
 30
0.0
 11
-4.871259
 21
5.931919
 31
0.0
  0
LINE
  8
default
 10
-6.240568
 20
4.469019
 30
0.0
 11
-6.327171
 21
4.519019
 31
0.0
  0
LINE
  8
default
 10
-6.327171
 20
4.519019
 30
0.0
 11
-6.625376
 21
4.402513
 31
0.0
  0
LINE
  8
default
 10
-6.625376
 20
4.402513
 30
0.0
 11
-7.404799
 21
4.852513
 31
0.0
  0
LINE
  8
default
 10
-6.990568
 20
3.169981
 30
0.0
 11
-7.077171
 21
3.219981
 31
0.0
  0
LINE
  8
default
 10
-7.125376
 20
3.536487
 30
0.0
 11
-7.904799
 21
3.986487
 31
0.0
  0
LINE
  8
default
 10
-7.077171
 20
3.219981
 30
0.0
 11
-7.125376
 21
3.536487
 31
0.0
  0
LINE
  8
default
 10
-6.990568
 20
3.169981
 30
0.0
 11
-6.240568
 21
4.469019
 31
0.0
  0
LINE
  8
default
 10
-7.184593
 20
2.701563
 30
0.0
 11
-7.281186
 21
2.727445
 31
0.0
  0
LINE
  8
default
 10
-7.281186
 20
2.727445
 30
0.0
 11
-7.539076
 21
2.537727
 31
0.0
  0
LINE
  8
default
 10
-7.539076
 20
2.537727
 30
0.0
 11
-8.408409
 21
2.770664
 31
0.0
  0
LINE
  8
default
 10
-7.572822
 20
1.252674
 30
0.0
 11
-7.669414
 21
1.278556
 31
0.0
  0
LINE
  8
default
 10
-7.797895
 20
1.571801
 30
0.0
 11
-8.667228
 21
1.804739
 31
0.0
  0
LINE
  8
default
 10
-7.669414
 20
1.278556
 30
0.0
 11
-7.797895
 21
1.571801
 31
0.0
  0
LINE
  8
default
 10
-7.572822
 20
1.252674
 30
0.0
 11
-7.184593
 21
2.701563
 31
0.0
  0
LINE
  8
default
 10
-7.639000
 20
0.750000
 30
0.0
 11
-7.739000
 21
0.750000
 31
0.0
  0
LINE
  8
default
 10
-7.739000
 20
0.750000
 30
0.0
 11
-7.939000
 21
0.500000
 31
0.0
  0
LINE
  8
default
 10
-7.939000
 20
0.500000
 30
0.0
 11
-8.839000
 21
0.500000
 31
0.0
  0
LINE
  8
default
 10
-7.639000
 20
-0.750000
 30
0.0
 11
-7.739000
 21
-0.750000
 31
0.0
  0
LINE
  8
default
 10
-7.939000
 20
-0.500000
 30
0.0
 11
-8.839000
 21
-0.500000
 31
0.0
  0
LINE
  8
default
 10
-7.739000
 20
-0.750000
 30
0.0
 11
-7.939000
 21
-0.500000
 31
0.0
  0
LINE
  8
default
 10
-7.639000
 20
-0.750000
 30
0.0
 11
-7.639000
 21
0.750000
 31
0.0
  0
LINE
  8
default
 10
-7.572822
 20
-1.252674
 30
0.0
 11
-7.669414
 21
-1.278556
 31
0.0
  0
LINE
  8
default
 10
-7.669414
 20
-1.278556
 30
0.0
 11
-7.797895
 21
-1.571801
 31
0.0
  0
LINE
  8
default
 10
-7.797895
 20
-1.571801
 30
0.0
 11
-8.667228
 21
-1.804739
 31
0.0
  0
LINE
  8
default
 10
-7.184593
 20
-2.701563
 30
0.0
 11
-7.281186
 21
-2.727445
 31
0.0
  0
LINE
  8
default
 10
-7.539076
 20
-2.537727
 30
0.0
 11
-8.408409
 21
-2.770664
 31
0.0
  0
LINE
  8
default
 10
-7.281186
 20
-2.727445
 30
0.0
 11
-7.539076
 21
-2.537727
 31
0.0
  0
LINE
  8
default
 10
-7.184593
 20
-2.701563
 30
0.0
 11
-7.572822
 21
-1.252674
 31
0.0
  0
LINE
  8
default
 10
-6.990568
 20
-3.169981
 30
0.0
 11
-7.077171
 21
-3.219981
 31
0.0
  0
LINE
  8
default
 10
-7.077171
 20
-3.219981
 30
0.0
 11
-7.125376
 21
-3.536487
 31
0.0
  0
LINE
  8
default
 10
-7.125376
 20
-3.536487
 30
0.0
 11
-7.904799
 21
-3.986487
 31
0.0
  0
LINE
  8
default
 10
-6.240568
 20
-4.469019
 30
0.0
 11
-6.327171
 21
-4.519019
 31
0.0
  0
LINE
  8
default
 10
-6.625376
 20
-4.402513
 30
0.0
 11
-7.404799
 21
-4.852513
 31
0.0
  0
LINE
  8
default
 10
-6.327171
 20
-4.519019
 30
0.0
 11
-6.625376
 21
-4.402513
 31
0.0
  0
LINE
  8
default
 10
-6.240568
 20
-4.469019
 30
0.0
 11
-6.990568
 21
-3.169981
 31
0.0
  0
LINE
  8
default
 10
-5.931919
 20
-4.871259
 30
0.0
 11
-6.002629
 21
-4.941969
 31
0.0
  0
LINE
  8
default
 10
-6.002629
 20
-4.941969
 30
0.0
 11
-5.967274
 21
-5.260167
 31
0.0
  0
LINE
  8
default
 10
-5.967274
 20
-5.260167
 30
0.0
 11
-6.603670
 21
-5.896563
 31
0.0
  0
LINE
  8
default
 10
-4.871259
 20
-5.931919
 30
0.0
 11
-4.941969
 21
-6.002629
 31
0.0
  0
LINE
  8
default
 10
-5.260167
 20
-5.967274
 30
0.0
 11
-5.896563
 21
-6.603670
 31
0.0
  0
LINE
  8
default
 10
-4.941969
 20
-6.002629
 30
0.0
 11
-5.260167
 21
-5.967274
 31
0.0
  0
LINE
  8
default
 10
-4.871259
 20
-5.931919
 30
0.0
 11
-5.931919
 21
-4.871259
 31
0.0
  0
LINE
  8
default
 10
-4.469019
 20
-6.240568
 30
0.0
 11
-4.519019
 21
-6.327171
 31
0.0
  0
LINE
  8
default
 10
-4.519019
 20
-6.327171
 30
0.0
 11
-4.402513
 21
-6.625376
 31
0.0
  0
LINE
  8
default
 10
-4.402513
 20
-6.625376
 30
0.0
 11
-4.852513
 21
-7.404799
 31
0.0
  0
LINE
  8
default
 10
-3.169981
 20
-6.990568
 30
0.0
 11
-3.219981
 21
-7.077171
 31
0.0
  0
LINE
  8
default
 10
-3.536487
 20
-7.125376
 30
0.0
 11
-3.986487
 21
-7.904799
 31
0.0
  0
LINE
  8
default
 10
-3.219981
 20
-7.077171
 30
0.0
 11
-3.536487
 21
-7.125376
 31
0.0
  0
LINE
  8
default
 10
-3.169981
 20
-6.990568
 30
0.0
 11
-4.469019
 21
-6.240568
 31
0.0
  0
LINE
  8
default
 10
-2.701563
 20
-7.184593
 30
0.0
 11
-2.727445
 21
-7.281186
 31
0.0
  0
LINE
  8
default
 10
-2.727445
 20
-7.281186
 30
0.0
 11
-2.537727
 21
-7.539076
 31
0.0
  0
LINE
  8
default
 10
-2.537727
 20
-7.539076
 30
0.0
 11
-2.770664
 21
-8.408409
 31
0.0
  0
LINE
  8
default
 10
-1.252674
 20
-7.572822
 30
0.0
 11
-1.278556
 21
-7.669414
 31
0.0
  0
LINE
  8
default
 10
-1.571801
 20
-7.797895
 30
0.0
 11
-1.804739
 21
-8.667228
 31
0.0
  0
LINE
  8
default
 10
-1.278556
 20
-7.669414
 30
0.0
 11
-1.571801
 21
-7.797895
 31
0.0
  0
LINE
  8
default
 10
-1.252674
 20
-7.572822
 30
0.0
 11
-2.701563
 21
-7.184593
 31
0.0
  0
LINE
  8
default
 10
-0.750000
 20
-7.639000
 30
0.0
 11
-0.750000
 21
-7.739000
 31
0.0
  0
LINE
  8
default
 10
-0.750000
 20
-7.739000
 30
0.0
 11
-0.500000
 21
-7.939000
 31
0.0
  0
LINE
  8
default
 10
-0.500000
 20
-7.939000
 30
0.0
 11
-0.500000
 21
-8.839000
 31
0.0
  0
LINE
  8
default
 10
0.750000
 20
-7.639000
 30
0.0
 11
0.750000
 21
-7.739000
 31
0.0
  0
LINE
  8
default
 10
0.500000
 20
-7.939000
 30
0.0
 11
0.500000
 21
-8.839000
 31
0.0
  0
LINE
  8
default
 10
0.750000
 20
-7.739000
 30
0.0
 11
0.500000
 21
-7.939000
 31
0.0
  0
LINE
  8
default
 10
0.750000
 20
-7.639000
 30
0.0
 11
-0.750000
 21
-7.639000
 31
0.0
  0
LINE
  8
default
 10
1.252674
 20
-7.572822
 30
0.0
 11
1.278556
 21
-7.669414
 31
0.0
  0
LINE
  8
default
 10
1.278556
 20
-7.669414
 30
0.0
 11
1.571801
 21
-7.797895
 31
0.0
  0
LINE
  8
default
 10
1.571801
 20
-7.797895
 30
0.0
 11
1.804739
 21
-8.667228
 31
0.0
  0
LINE
  8
default
 10
2.701563
 20
-7.184593
 30
0.0
 11
2.727445
 21
-7.281186
 31
0.0
  0
LINE
  8
default
 10
2.537727
 20
-7.539076
 30
0.0
 11
2.770664
 21
-8.408409
 31
0.0
  0
LINE
  8
default
 10
2.727445
 20
-7.281186
 30
0.0
 11
2.537727
 21
-7.539076
 31
0.0
  0
LINE
  8
default
 10
2.701563
 20
-7.184593
 30
0.0
 11
1.252674
 21
-7.572822
 31
0.0
  0
LINE
  8
default
 10
3.169981
 20
-6.990568
 30
0.0
 11
3.219981
 21
-7.077171
 31
0.0
  0
LINE
  8
default
 10
3.219981
 20
-7.077171
 30
0.0
 11
3.536487
 21
-7.125376
 31
0.0
  0
LINE
  8
default
 10
3.536487
 20
-7.125376
 30
0.0
 11
3.986487
 21
-7.904799
 31
0.0
  0
LINE
  8
default
 10
4.469019
 20
-6.240568
 30
0.0
 11
4.519019
 21
-6.327171
 31
0.0
  0
LINE
  8
default
 10
4.402513
 20
-6.625376
 30
0.0
 11
4.852513
 21
-7.404799
 31
0.0
  0
LINE
  8
default
 10
4.519019
 20
-6.327171
 30
0.0
 11
4.402513
 21
-6.625376
 31
0.0
  0
LINE
  8
default
 10
4.469019
 20
-6.240568
 30
0.0
 11
3.169981
 21
-6.990568
 31
0.0
  0
LINE
  8
default
 10
4.871259
 20
-5.931919
 30
0.0
 11
4.941969
 21
-6.002629
 31
0.0
  0
LINE
  8
default
 10
4.941969
 20
-6.002629
 30
0.0
 11
5.260167
 21
-5.967274
 31
0.0
  0
LINE
  8
default
 10
5.260167
 20
-5.967274
 30
0.0
 11
5.896563
 21
-6.603670
 31
0.0
  0
LINE
  8
default
 10
5.931919
 20
-4.871259
 30
0.0
 11
6.002629
 21
-4.941969
 31
0.0
  0
LINE
  8
default
 10
5.967274
 20
-5.260167
 30
0.0
 11
6.603670
 21
-5.896563
 31
0.0
  0
LINE
  8
default
 10
6.002629
 20
-4.941969
 30
0.0
 11
5.967274
 21
-5.260167
 31
0.0
  0
LINE
  8
default
 10
5.931919
 20
-4.871259
 30
0.0
 11
4.871259
 21
-5.931919
 31
0.0
  0
LINE
  8
default
 10
6.240568
 20
-4.469019
 30
0.0
 11
6.327171
 21
-4.519019
 31
0.0
  0
LINE
  8
default
 10
6.327171
 20
-4.519019
 30
0.0
 11
6.625376
 21
-4.402513
 31
0.0
  0
LINE
  8
default
 10
6.625376
 20
-4.402513
 30
0.0
 11
7.404799
 21
-4.852513
 31
0.0
  0
LINE
  8
default
 10
6.990568
 20
-3.169981
 30
0.0
 11
7.077171
 21
-3.219981
 31
0.0
  0
LINE
  8
default
 10
7.125376
 20
-3.536487
 30
0.0
 11
7.904799
 21
-3.986487
 31
0.0
  0
LINE
  8
default
 10
7.077171
 20
-3.219981
 30
0.0
 11
7.125376
 21
-3.536487
 31
0.0
  0
LINE
  8
default
 10
6.990568
 20
-3.169981
 30
0.0
 11
6.240568
 21
-4.469019
 31
0.0
  0
LINE
  8
default
 10
7.184593
 20
-2.701563
 30
0.0
 11
7.281186
 21
-2.727445
 31
0.0
  0
LINE
  8
default
 10
7.281186
 20
-2.727445
 30
0.0
 11
7.539076
 21
-2.537727
 31
0.0
  0
LINE
  8
default
 10
7.539076
 20
-2.537727
 30
0.0
 11
8.408409
 21
-2.770664
 31
0.0
  0
LINE
  8
default
 10
7.572822
 20
-1.252674
 30
0.0
 11
7.669414
 21
-1.278556
 31
0.0
  0
LINE
  8
default
 10
7.797895
 20
-1.571801
 30
0.0
 11
8.667228
 21
-1.804739
 31
0.0
  0
LINE
  8
default
 10
7.669414
 20
-1.278556
 30
0.0
 11
7.797895
 21
-1.571801
 31
0.0
  0
LINE
  8
default
 10
7.572822
 20
-1.252674
 30
0.0
 11
7.184593
 21
-2.701563
 31
0.0
  0
LINE
  8
default
 10
7.639000
 20
-0.750000
 30
0.0
 11
7.739000
 21
-0.750000
 31
0.0
  0
LINE
  8
default
 10
7.739000
 20
-0.750000
 30
0.0
 11
7.939000
 21
-0.500000
 31
0.0
  0
LINE
  8
default
 10
7.939000
 20
-0.500000
 30
0.0
 11
8.839000
 21
-0.500000
 31
0.0
  0
LINE
  8
default
 10
7.639000
 20
0.750000
 30
0.0
 11
7.739000
 21
0.750000
 31
0.0
  0
LINE
  8
default
 10
7.939000
 20
0.500000
 30
0.0
 11
8.839000
 21
0.500000
 31
0.0
  0
LINE
  8
default
 10
7.739000
 20
0.750000
 30
0.0
 11
7.939000
 21
0.500000
 31
0.0
  0
LINE
  8
default
 10
7.639000
 20
0.750000
 30
0.0
 11
7.639000
 21
-0.750000
 31
0.0
  0
LINE
  8
default
 10
7.572822
 20
1.252674
 30
0.0
 11
7.669414
 21
1.278556
 31
0.0
  0
LINE
  8
default
 10
7.669414
 20
1.278556
 30
0.0
 11
7.797895
 21
1.571801
 31
0.0
  0
LINE
  8
default
 10
7.797895
 20
1.571801
 30
0.0
 11
8.667228
 21
1.804739
 31
0.0
  0
LINE
  8
default
 10
7.184593
 20
2.701563
 30
0.0
 11
7.281186
 21
2.727445
 31
0.0
  0
LINE
  8
default
 10
7.539076
 20
2.537727
 30
0.0
 11
8.408409
 21
2.770664
 31
0.0
  0
LINE
  8
default
 10
7.281186
 20
2.727445
 30
0.0
 11
7.539076
 21
2.537727
 31
0.0
  0
LINE
  8
default
 10
7.184593
 20
2.701563
 30
0.0
 11
7.572822
 21
1.252674
 31
0.0
  0
LINE
  8
default
 10
6.990568
 20
3.169981
 30
0.0
 11
7.077171
 21
3.219981
 31
0.0
  0
LINE
  8
default
 10
7.077171
 20
3.219981
 30
0.0
 11
7.125376
 21
3.536487
 31
0.0
  0
LINE
  8
default
 10
7.125376
 20
3.536487
 30
0.0
 11
7.904799
 21
3.986487
 31
0.0
  0
LINE
  8
default
 10
6.240568
 20
4.469019
 30
0.0
 11
6.327171
 21
4.519019
 31
0.0
  0
LINE
  8
default
 10
6.625376
 20
4.402513
 30
0.0
 11
7.404799
 21
4.852513
 31
0.0
  0
LINE
  8
default
 10
6.327171
 20
4.519019
 30
0.0
 11
6.625376
 21
4.402513
 31
0.0
  0
LINE
  8
default
 10
6.240568
 20
4.469019
 30
0.0
 11
6.990568
 21
3.169981
 31
0.0
  0
LINE
  8
default
 10
5.931919
 20
4.871259
 30
0.0
 11
6.002629
 21
4.941969
 31
0.0
  0
LINE
  8
default
 10
6.002629
 20
4.941969
 30
0.0
 11
5.967274
 21
5.260167
 31
0.0
  0
LINE
  8
default
 10
5.967274
 20
5.260167
 30
0.0
 11
6.603670
 21
5.896563
 31
0.0
  0
LINE
  8
default
 10
4.871259
 20
5.931919
 30
0.0
 11
4.941969
 21
6.002629
 31
0.0
  0
LINE
  8
default
 10
5.260167
 20
5.967274
 30
0.0
 11
5.896563
 21
6.603670
 31
0.0
  0
LINE
  8
default
 10
4.941969
 20
6.002629
 30
0.0
 11
5.260167
 21
5.967274
 31
0.0
  0
LINE
  8
default
 10
4.871259
 20
5.931919
 30
0.0
 11
5.931919
 21
4.871259
 31
0.0
  0
LINE
  8
default
 10
4.469019
 20
6.240568
 30
0.0
 11
4.519019
 21
6.327171
 31
0.0
  0
LINE
  8
default
 10
4.519019
 20
6.327171
 30
0.0
 11
4.402513
 21
6.625376
 31
0.0
  0
LINE
  8
default
 10
4.402513
 20
6.625376
 30
0.0
 11
4.852513
 21
7.404799
 31
0.0
  0
LINE
  8
default
 10
3.169981
 20
6.990568
 30
0.0
 11
3.219981
 21
7.077171
 31
0.0
  0
LINE
  8
default
 10
3.536487
 20
7.125376
 30
0.0
 11
3.986487
 21
7.904799
 31
0.0
  0
LINE
  8
default
 10
3.219981
 20
7.077171
 30
0.0
 11
3.536487
 21
7.125376
 31
0.0
  0
LINE
  8
default
 10
3.169981
 20
6.990568
 30
0.0
 11
4.469019
 21
6.240568
 31
0.0
  0
LINE
  8
default
 10
2.701563
 20
7.184593
 30
0.0
 11
2.727445
 21
7.281186
 31
0.0
  0
LINE
  8
default
 10
2.727445
 20
7.281186
 30
0.0
 11
2.537727
 21
7.539076
 31
0.0
  0
LINE
  8
default
 10
2.537727
 20
7.539076
 30
0.0
 11
2.770664
 21
8.408409
 31
0.0
  0
LINE
  8
default
 10
1.252674
 20
7.572822
 30
0.0
 11
1.278556
 21
7.669414
 31
0.0
  0
LINE
  8
default
 10
1.571801
 20
7.797895
 30
0.0
 11
1.804739
 21
8.667228
 31
0.0
  0
LINE
  8
default
 10
1.278556
 20
7.669414
 30
0.0
 11
1.571801
 21
7.797895
 31
0.0
  0
LINE
  8
default
 10
1.252674
 20
7.572822
 30
0.0
 11
2.701563
 21
7.184593
 31
0.0
  0
LINE
  8
default
 10
-2.691916
 20
-7.544110
 30
0.0
 11
-3.431019
 21
-7.237963
 31
0.0
  0
LINE
  8
default
 10
-3.074599
 20
-8.467989
 30
0.0
 11
-2.691916
 21
-7.544110
 31
0.0
  0
LINE
  8
default
 10
-3.813703
 20
-8.161842
 30
0.0
 11
-3.431019
 21
-7.237963
 31
0.0
  0
LINE
  8
default
 10
-3.074599
 20
-8.467989
 30
0.0
 11
-3.813703
 21
-8.161842
 31
0.0
  0
LINE
  8
default
 10
0.647632
 20
7.983769
 30
0.0
 11
1.440787
 21
7.879348
 31
0.0
  0
LINE
  8
default
 10
0.778158
 20
8.975214
 30
0.0
 11
0.647632
 21
7.983769
 31
0.0
  0
LINE
  8
default
 10
1.571314
 20
8.870793
 30
0.0
 11
1.440787
 21
7.879348
 31
0.0
  0
LINE
  8
default
 10
0.778158
 20
8.975214
 30
0.0
 11
1.571314
 21
8.870793
 31
0.0
  0
LINE
  8
default
 10
2.691916
 20
7.544110
 30
0.0
 11
3.431019
 21
7.237963
 31
0.0
  0
LINE
  8
default
 10
3.074599
 20
8.467989
 30
0.0
 11
2.691916
 21
7.544110
 31
0.0
  0
LINE
  8
default
 10
3.813703
 20
8.161842
 30
0.0
 11
3.431019
 21
7.237963
 31
0.0
  0
LINE
  8
default
 10
3.074599
 20
8.467989
 30
0.0
 11
3.813703
 21
8.161842
 31
0.0
  0
LINE
  8
default
 10
-3.431019
 20
7.237963
 30
0.0
 11
-2.691916
 21
7.544110
 31
0.0
  0
LINE
  8
default
 10
-3.813703
 20
8.161842
 30
0.0
 11
-3.431019
 21
7.237963
 31
0.0
  0
LINE
  8
default
 10
-3.074599
 20
8.467989
 30
0.0
 11
-2.691916
 21
7.544110
 31
0.0
  0
LINE
  8
default
 10
-3.813703
 20
8.161842
 30
0.0
 11
-3.074599
 21
8.467989
 31
0.0
  0
LINE
  8
default
 10
-1.440787
 20
7.879348
 30
0.0
 11
-0.647632
 21
7.983769
 31
0.0
  0
LINE
  8
default
 10
-1.571314
 20
8.870793
 30
0.0
 11
-1.440787
 21
7.879348
 31
0.0
  0
LINE
  8
default
 10
-0.778158
 20
8.975214
 30
0.0
 11
-0.647632
 21
7.983769
 31
0.0
  0
LINE
  8
default
 10
-1.571314
 20
8.870793
 30
0.0
 11
-0.778158
 21
8.975214
 31
0.0
  0
LINE
  8
default
 10
3.431019
 20
-7.237963
 30
0.0
 11
2.691916
 21
-7.544110
 31
0.0
  0
LINE
  8
default
 10
3.813703
 20
-8.161842
 30
0.0
 11
3.431019
 21
-7.237963
 31
0.0
  0
LINE
  8
default
 10
3.074599
 20
-8.467989
 30
0.0
 11
2.691916
 21
-7.544110
 31
0.0
  0
LINE
  8
default
 10
3.813703
 20
-8.161842
 30
0.0
 11
3.074599
 21
-8.467989
 31
0.0
  0
LINE
  8
default
 10
1.440787
 20
-7.879348
 30
0.0
 11
0.647632
 21
-7.983769
 31
0.0
  0
LINE
  8
default
 10
1.571314
 20
-8.870793
 30
0.0
 11
1.440787
 21
-7.879348
 31
0.0
  0
LINE
  8
default
 10
0.778158
 20
-8.975214
 30
0.0
 11
0.647632
 21
-7.983769
 31
0.0
  0
LINE
  8
default
 10
1.571314
 20
-8.870793
 30
0.0
 11
0.778158
 21
-8.975214
 31
0.0
  0
LINE
  8
default
 10
-0.647632
 20
-7.983769
 30
0.0
 11
-1.440787
 21
-7.879348
 31
0.0
  0
LINE
  8
default
 10
-0.778158
 20
-8.975214
 30
0.0
 11
-0.647632
 21
-7.983769
 31
0.0
  0
LINE
  8
default
 10
-1.571314
 20
-8.870793
 30
0.0
 11
-1.440787
 21
-7.879348
 31
0.0
  0
LINE
  8
default
 10
-0.778158
 20
-8.975214
 30
0.0
 11
-1.571314
 21
-8.870793
 31
0.0
  0
LINE
  8
default
 10
-5.796194
 20
6.896675
 30
0.0
 11
-5.161512
 21
7.383685
 31
0.0
  0
LINE
  8
default
 10
-5.187433
 20
6.103322
 30
0.0
 11
-4.552750
 21
6.590331
 31
0.0
  0
LINE
  8
default
 10
-5.796194
 20
6.896675
 30
0.0
 11
-5.187433
 21
6.103322
 31
0.0
  0
LINE
  8
default
 10
-5.161512
 20
7.383685
 30
0.0
 11
-4.552750
 21
6.590331
 31
0.0
  0
LINE
  8
default
 10
-5.796194
 20
-6.896675
 30
0.0
 11
-5.187433
 21
-6.103322
 31
0.0
  0
LINE
  8
default
 10
-5.187433
 20
-6.103322
 30
0.0
 11
-4.552750
 21
-6.590331
 31
0.0
  0
LINE
  8
default
 10
-4.552750
 20
-6.590331
 30
0.0
 11
-5.161512
 21
-7.383685
 31
0.0
  0
LINE
  8
default
 10
-5.161512
 20
-7.383685
 30
0.0
 11
-5.796194
 21
-6.896675
 31
0.0
  0
LINE
  8
default
 10
-6.896675
 20
-5.796194
 30
0.0
 11
-7.383685
 21
-5.161512
 31
0.0
  0
LINE
  8
default
 10
-7.383685
 20
-5.161512
 30
0.0
 11
-6.590331
 21
-4.552750
 31
0.0
  0
LINE
  8
default
 10
-6.103322
 20
-5.187433
 30
0.0
 11
-6.590331
 21
-4.552750
 31
0.0
  0
LINE
  8
default
 10
-6.896675
 20
-5.796194
 30
0.0
 11
-6.103322
 21
-5.187433
 31
0.0
  0
LINE
  8
default
 10
-8.161842
 20
-3.813703
 30
0.0
 11
-8.467989
 21
-3.074599
 31
0.0
  0
LINE
  8
default
 10
-7.544110
 20
-2.691916
 30
0.0
 11
-7.237963
 21
-3.431019
 31
0.0
  0
LINE
  8
default
 10
-8.467989
 20
-3.074599
 30
0.0
 11
-7.544110
 21
-2.691916
 31
0.0
  0
LINE
  8
default
 10
-8.161842
 20
-3.813703
 30
0.0
 11
-7.237963
 21
-3.431019
 31
0.0
  0
LINE
  8
default
 10
-8.975214
 20
-0.778158
 30
0.0
 11
-7.983769
 21
-0.647632
 31
0.0
  0
LINE
  8
default
 10
-7.879348
 20
-1.440787
 30
0.0
 11
-7.983769
 21
-0.647632
 31
0.0
  0
LINE
  8
default
 10
-8.870793
 20
-1.571314
 30
0.0
 11
-7.879348
 21
-1.440787
 31
0.0
  0
LINE
  8
default
 10
-8.870793
 20
-1.571314
 30
0.0
 11
-8.975214
 21
-0.778158
 31
0.0
  0
LINE
  8
default
 10
-7.983769
 20
0.647632
 30
0.0
 11
-7.879348
 21
1.440787
 31
0.0
  0
LINE
  8
default
 10
-7.879348
 20
1.440787
 30
0.0
 11
-8.870793
 21
1.571314
 31
0.0
  0
LINE
  8
default
 10
-8.870793
 20
1.571314
 30
0.0
 11
-8.975214
 21
0.778158
 31
0.0
  0
LINE
  8
default
 10
-8.975214
 20
0.778158
 30
0.0
 11
-7.983769
 21
0.647632
 31
0.0
  0
LINE
  8
default
 10
-7.544110
 20
2.691916
 30
0.0
 11
-7.237963
 21
3.431019
 31
0.0
  0
LINE
  8
default
 10
-7.237963
 20
3.431019
 30
0.0
 11
-8.161842
 21
3.813703
 31
0.0
  0
LINE
  8
default
 10
-8.161842
 20
3.813703
 30
0.0
 11
-8.467989
 21
3.074599
 31
0.0
  0
LINE
  8
default
 10
-8.467989
 20
3.074599
 30
0.0
 11
-7.544110
 21
2.691916
 31
0.0
  0
LINE
  8
default
 10
-6.590331
 20
4.552750
 30
0.0
 11
-6.103322
 21
5.187433
 31
0.0
  0
LINE
  8
default
 10
-6.103322
 20
5.187433
 30
0.0
 11
-6.896675
 21
5.796194
 31
0.0
  0
LINE
  8
default
 10
-6.896675
 20
5.796194
 30
0.0
 11
-7.383685
 21
5.161512
 31
0.0
  0
LINE
  8
default
 10
-7.383685
 20
5.161512
 30
0.0
 11
-6.590331
 21
4.552750
 31
0.0
  0
LINE
  8
default
 10
4.552750
 20
-6.590331
 30
0.0
 11
5.187433
 21
-6.103322
 31
0.0
  0
LINE
  8
default
 10
5.187433
 20
-6.103322
 30
0.0
 11
5.796194
 21
-6.896675
 31
0.0
  0
LINE
  8
default
 10
5.796194
 20
-6.896675
 30
0.0
 11
5.161512
 21
-7.383685
 31
0.0
  0
LINE
  8
default
 10
5.161512
 20
-7.383685
 30
0.0
 11
4.552750
 21
-6.590331
 31
0.0
  0
LINE
  8
default
 10
6.103322
 20
-5.187433
 30
0.0
 11
6.590331
 21
-4.552750
 31
0.0
  0
LINE
  8
default
 10
6.590331
 20
-4.552750
 30
0.0
 11
7.383685
 21
-5.161512
 31
0.0
  0
LINE
  8
default
 10
7.383685
 20
-5.161512
 30
0.0
 11
6.896675
 21
-5.796194
 31
0.0
  0
LINE
  8
default
 10
6.896675
 20
-5.796194
 30
0.0
 11
6.103322
 21
-5.187433
 31
0.0
  0
LINE
  8
default
 10
8.161842
 20
-3.813703
 30
0.0
 11
8.467989
 21
-3.074599
 31
0.0
  0
LINE
  8
default
 10
8.467989
 20
-3.074599
 30
0.0
 11
7.544110
 21
-2.691916
 31
0.0
  0
LINE
  8
default
 10
7.544110
 20
-2.691916
 30
0.0
 11
7.237963
 21
-3.431019
 31
0.0
  0
LINE
  8
default
 10
7.237963
 20
-3.431019
 30
0.0
 11
8.161842
 21
-3.813703
 31
0.0
  0
LINE
  8
default
 10
8.870793
 20
-1.571314
 30
0.0
 11
8.975214
 21
-0.778158
 31
0.0
  0
LINE
  8
default
 10
8.975214
 20
-0.778158
 30
0.0
 11
7.983769
 21
-0.647632
 31
0.0
  0
LINE
  8
default
 10
7.983769
 20
-0.647632
 30
0.0
 11
7.879348
 21
-1.440787
 31
0.0
  0
LINE
  8
default
 10
7.879348
 20
-1.440787
 30
0.0
 11
8.870793
 21
-1.571314
 31
0.0
  0
LINE
  8
default
 10
8.975214
 20
0.778158
 30
0.0
 11
8.870793
 21
1.571314
 31
0.0
  0
LINE
  8
default
 10
8.870793
 20
1.571314
 30
0.0
 11
7.879348
 21
1.440787
 31
0.0
  0
LINE
  8
default
 10
7.879348
 20
1.440787
 30
0.0
 11
7.983769
 21
0.647632
 31
0.0
  0
LINE
  8
default
 10
7.983769
 20
0.647632
 30
0.0
 11
8.975214
 21
0.778158
 31
0.0
  0
LINE
  8
default
 10
8.467989
 20
3.074599
 30
0.0
 11
8.161842
 21
3.813703
 31
0.0
  0
LINE
  8
default
 10
8.161842
 20
3.813703
 30
0.0
 11
7.237963
 21
3.431019
 31
0.0
  0
LINE
  8
default
 10
7.237963
 20
3.431019
 30
0.0
 11
7.544110
 21
2.691916
 31
0.0
  0
LINE
  8
default
 10
7.544110
 20
2.691916
 30
0.0
 11
8.467989
 21
3.074599
 31
0.0
  0
LINE
  8
default
 10
6.590331
 20
4.552750
 30
0.0
 11
7.383685
 21
5.161512
 31
0.0
  0
LINE
  8
default
 10
7.383685
 20
5.161512
 30
0.0
 11
6.896675
 21
5.796194
 31
0.0
  0
LINE
  8
default
 10
6.896675
 20
5.796194
 30
0.0
 11
6.103322
 21
5.187433
 31
0.0
  0
LINE
  8
default
 10
6.103322
 20
5.187433
 30
0.0
 11
6.590331
 21
4.552750
 31
0.0
  0
LINE
  8
default
 10
5.796194
 20
6.896675
 30
0.0
 11
5.161512
 21
7.383685
 31
0.0
  0
LINE
  8
default
 10
5.161512
 20
7.383685
 30
0.0
 11
4.552750
 21
6.590331
 31
0.0
  0
LINE
  8
default
 10
4.552750
 20
6.590331
 30
0.0
 11
5.187433
 21
6.103322
 31
0.0
  0
LINE
  8
default
 10
5.187433
 20
6.103322
 30
0.0
 11
5.796194
 21
6.896675
 31
0.0
  0
LINE
  8
default
 10
-6.495191
 20
3.750000
 30
0.0
 11
-6.100000
 21
3.750000
 31
0.0
  0
LINE
  8
default
 10
-6.100000
 20
3.750000
 30
0.0
 11
-6.100000
 21
2.000000
 31
0.0
  0
LINE
  8
default
 10
-6.100000
 20
2.000000
 30
0.0
 11
-5.000000
 21
2.000000
 31
0.0
  0
LINE
  8
default
 10
6.100000
 20
2.000000
 30
0.0
 11
6.100000
 21
3.750000
 31
0.0
  0
LINE
  8
default
 10
6.100000
 20
3.750000
 30
0.0
 11
6.495191
 21
3.750000
 31
0.0
  0
LINE
  8
default
 10
6.495191
 20
-3.750000
 30
0.0
 11
6.100000
 21
-3.750000
 31
0.0
  0
LINE
  8
default
 10
6.100000
 20
-3.750000
 30
0.0
 11
6.100000
 21
-2.000000
 31
0.0
  0
LINE
  8
default
 10
6.100000
 20
-2.000000
 30
0.0
 11
5.000000
 21
-2.000000
 31
0.0
  0
LINE
  8
default
 10
5.000000
 20
-2.000000
 30
0.0
 11
-5.000000
 21
-2.000000
 31
0.0
  0
LINE
  8
default
 10
-5.000000
 20
-2.000000
 30
0.0
 11
-6.100000
 21
-2.000000
 31
0.0
  0
LINE
  8
default
 10
-6.100000
 20
-2.000000
 30
0.0
 11
-6.100000
 21
-3.750000
 31
0.0
  0
LINE
  8
default
 10
-6.495191
 20
-3.750000
 30
0.0
 11
-6.100000
 21
-3.750000
 31
0.0
  0
LINE
  8
default
 10
5.000000
 20
2.000000
 30
0.0
 11
6.100000
 21
2.000000
 31
0.0
  0
LINE
  8
default
 10
-5.000000
 20
2.000000
 30
0.0
 11
5.000000
 21
2.000000
 31
0.0
  0
LINE
  8
default
 10
-5.000000
 20
3.000000
 30
0.0
 11
-5.000000
 21
2.000000
 31
0.0
  0
LINE
  8
default
 10
-5.000000
 20
3.000000
 30
0.0
 11
5.000000
 21
3.000000
 31
0.0
  0
LINE
  8
default
 10
5.000000
 20
3.000000
 30
0.0
 11
5.000000
 21
2.000000
 31
0.0
  0
LINE
  8
default
 10
-5.000000
 20
-2.000000
 30
0.0
 11
-5.000000
 21
-3.000000
 31
0.0
  0
LINE
  8
default
 10
-5.000000
 20
-3.000000
 30
0.0
 11
5.000000
 21
-3.000000
 31
0.0
  0
LINE
  8
default
 10
5.000000
 20
-3.000000
 30
0.0
 11
5.000000
 21
-2.000000
 31
0.0
  0
ARC
  8
default
 10
1.152369
 20
8.753114
 30
0.000000
 40
0.657999
 50
352.500000
 51
172.500000
  0
ARC
  8
default
 10
3.378576
 20
8.156604
 30
0.000000
 40
0.657999
 50
337.500000
 51
157.500000
  0
ARC
  8
default
 10
5.374538
 20
7.004234
 30
0.000000
 40
0.657999
 50
322.500000
 51
142.500000
  0
ARC
  8
default
 10
7.004234
 20
5.374538
 30
0.000000
 40
0.657999
 50
307.500000
 51
127.500000
  0
ARC
  8
default
 10
8.156604
 20
3.378576
 30
0.000000
 40
0.657999
 50
292.500000
 51
112.500000
  0
ARC
  8
default
 10
8.753114
 20
1.152369
 30
0.000000
 40
0.657999
 50
277.500000
 51
97.500000
  0
ARC
  8
default
 10
8.753114
 20
-1.152369
 30
0.000000
 40
0.657999
 50
262.500000
 51
82.500000
  0
ARC
  8
default
 10
8.156604
 20
-3.378576
 30
0.000000
 40
0.657999
 50
247.500000
 51
67.500000
  0
ARC
  8
default
 10
7.004234
 20
-5.374538
 30
0.000000
 40
0.657999
 50
232.500000
 51
52.500000
  0
ARC
  8
default
 10
5.374538
 20
-7.004234
 30
0.000000
 40
0.657999
 50
217.500000
 51
37.500000
  0
ARC
  8
default
 10
3.378576
 20
-8.156604
 30
0.000000
 40
0.657999
 50
202.500000
 51
22.500000
  0
ARC
  8
default
 10
1.152369
 20
-8.753114
 30
0.000000
 40
0.657999
 50
187.500000
 51
7.500000
  0
ARC
  8
default
 10
-1.152369
 20
-8.753114
 30
0.000000
 40
0.657999
 50
172.500000
 51
352.500000
  0
ARC
  8
default
 10
-3.378576
 20
-8.156604
 30
0.000000
 40
0.657999
 50
157.500000
 51
337.500000
  0
ARC
  8
default
 10
-5.374538
 20
-7.004234
 30
0.000000
 40
0.657999
 50
142.500000
 51
322.500000
  0
ARC
  8
default
 10
-7.004234
 20
-5.374538
 30
0.000000
 40
0.657999
 50
127.500000
 51
307.500000
  0
ARC
  8
default
 10
-8.156604
 20
-3.378576
 30
0.000000
 40
0.657999
 50
112.500000
 51
292.500000
  0
ARC
  8
default
 10
-8.753114
 20
-1.152369
 30
0.000000
 40
0.657999
 50
97.500000
 51
277.500000
  0
ARC
  8
default
 10
-8.753114
 20
1.152369
 30
0.000000
 40
0.657999
 50
82.500000
 51
262.500000
  0
ARC
  8
default
 10
-8.156604
 20
3.378576
 30
0.000000
 40
0.657999
 50
67.500000
 51
247.500000
  0
ARC
  8
default
 10
-7.004234
 20
5.374538
 30
0.000000
 40
0.657999
 50
52.500000
 51
232.500000
  0
ARC
  8
default
 10
-5.374538
 20
7.004234
 30
0.000000
 40
0.657999
 50
37.500000
 51
217.500000
  0
ARC
  8
default
 10
-3.378576
 20
8.156604
 30
0.000000
 40
0.657999
 50
22.500000
 51
202.500000
  0
ARC
  8
default
 10
-1.152369
 20
8.753114
 30
0.000000
 40
0.657999
 50
7.500000
 51
187.500000
  0
ARC
  8
default
 10
0.000000
 20
0.000000
 30
0.000000
 40
11.000000
 50
180.000000
 51
0.000000
  0
ARC
  8
default
 10
0.000000
 20
0.000000
 30
0.000000
 40
11.000000
 50
0.000000
 51
180.000000
  0
ARC
  8
default
 10
0.000000
 20
0.000000
 30
0.000000
 40
7.500000
 50
330.000000
 51
360.000000
  0
ARC
  8
default
 10
0.000000
 20
-0.000000
 30
0.000000
 40
7.500000
 50
0.000000
 51
30.000000
  0
ARC
  8
default
 10
0.000000
 20
-0.000000
 30
0.000000
 40
7.500000
 50
150.000000
 51
180.000000
  0
ARC
  8
default
 10
0.000000
 20
0.000000
 30
0.000000
 40
7.500000
 50
180.000000
 51
210.000000
  0
ENDSEC
  0
EOF
